<svg width="876" height="96" viewBox="0 0 876 96" fill="none" xmlns="http://www.w3.org/2000/svg">
<path d="M1.07341 22.7511C52.9393 52.2539 82.0665 52.1804 133.876 22.9532C189.898 6.62975 225.066 6.83727 299.145 23.2048C368.996 45.3799 406.37 47.4488 469.332 23.4638C516.668 7.37639 545.096 9.66976 598.202 23.66C648.968 36.3272 679.166 38.9512 736.419 23.8703C816.507 -10.189 842.027 -2.19802 874.635 24.0807" stroke="#FFDB58" stroke-opacity="0.4"/>
<path d="M1.14582 35.0016C53.0112 64.504 82.1384 64.4304 133.949 35.2028C189.971 18.8789 225.139 19.0862 299.217 35.4532C369.068 57.6278 406.442 59.6965 469.404 35.711C516.741 19.6233 545.168 21.9165 598.274 35.9063C649.04 48.5732 679.238 51.1969 736.491 36.1157C816.58 2.0558 842.1 10.0466 874.708 36.3251" stroke="#FF0202" stroke-opacity="0.4"/>
<path d="M1.21778 47.2521C53.0832 76.7545 82.2104 76.6808 134.021 47.4533C190.043 31.1294 225.211 31.3367 299.289 47.7037C369.14 69.8783 406.514 71.947 469.476 47.9615C516.813 31.8738 545.24 34.167 598.346 48.1568C649.112 60.8236 679.31 63.4474 736.563 48.3662C816.652 14.3063 842.172 22.2971 874.78 48.5756" stroke="#FFDB58" stroke-opacity="0.4"/>
<path d="M1.28986 59.5025C53.1553 89.005 82.2825 88.9313 134.093 59.7038C190.115 43.3799 225.283 43.5872 299.361 59.9542C369.212 82.1288 406.586 84.1975 469.548 60.212C516.885 44.1243 545.312 46.4174 598.418 60.4073C649.184 73.0741 679.382 75.6979 736.635 60.6167C816.724 26.5568 842.244 34.5476 874.852 60.8261" stroke="#FF0202" stroke-opacity="0.4"/>
<path d="M1.36188 71.753C53.2273 101.255 82.3545 101.182 134.165 71.9542C190.187 55.6304 225.355 55.8377 299.433 72.2047C369.284 94.3793 406.658 96.448 469.62 72.4625C516.957 56.3748 545.384 58.6679 598.49 72.6578C649.256 85.3246 679.455 87.9484 736.707 72.8672C816.796 38.8073 842.316 46.7981 874.924 73.0766" stroke="#FFDB58" stroke-opacity="0.4"/>
</svg>
